HIERARCHY
ROOT hip
{
	OFFSET 0.000000 0.000000 0.000000 
	CHANNELS 6 Xposition Yposition Zposition Xrotation Zrotation Yrotation
	JOINT abdomen
	{
		OFFSET 0.000000 3.402643 0.000000 
		CHANNELS 3 Xrotation Zrotation Yrotation
		JOINT chest
		{
			OFFSET 0.000000 8.438565 -0.680529 
			CHANNELS 3 Xrotation Zrotation Yrotation
			JOINT neck
			{
				OFFSET 0.000000 10.207942 -0.272212 
				CHANNELS 3 Xrotation Zrotation Yrotation
				JOINT head
				{
					OFFSET 0.000000 3.130431 0.000000 
					CHANNELS 3 Xrotation Zrotation Yrotation
					End Site
					{
						OFFSET 0.000000 3.130435 0.000000 
					}
				}
			}
			JOINT lCollar
			{
				OFFSET 3.470700 6.669187 -0.816635 
				CHANNELS 3 Yrotation Zrotation Xrotation
				JOINT lShldr
				{
					OFFSET 3.198488 0.000000 0.000000 
					CHANNELS 3 Zrotation Yrotation Xrotation
					JOINT lForeArm
					{
						OFFSET 10.139888 0.000000 0.000000 
						CHANNELS 3 Yrotation Zrotation Xrotation
						JOINT lHand
						{
							OFFSET 8.370511 0.000000 0.000000 
							CHANNELS 3 Zrotation Yrotation Xrotation
							End Site
							{
								OFFSET 4.083176 0.000000 0.000000 
							}
						}
					}
				}
			}
			JOINT rCollar
			{
				OFFSET -3.470700 6.669187 -0.816635 
				CHANNELS 3 Yrotation Zrotation Xrotation
				JOINT rShldr
				{
					OFFSET -3.198488 0.000000 0.000000 
					CHANNELS 3 Zrotation Yrotation Xrotation
					JOINT rForeArm
					{
						OFFSET -10.139888 0.000000 0.000000 
						CHANNELS 3 Yrotation Zrotation Xrotation
						JOINT rHand
						{
							OFFSET -8.370511 0.000000 0.000000 
							CHANNELS 3 Zrotation Yrotation Xrotation
							End Site
							{
								OFFSET -4.083176 0.000000 0.000000 
							}
						}
					}
				}
			}
		}
	}
	JOINT lThigh
	{
		OFFSET 5.308129 -1.633274 1.361059 
		CHANNELS 3 Xrotation Zrotation Yrotation
		JOINT lShin
		{
			OFFSET -2.041588 -20.007561 0.000000 
			CHANNELS 3 Xrotation Zrotation Yrotation
			JOINT lFoot
			{
				OFFSET 0.000000 -19.190928 -1.224953 
				CHANNELS 3 Xrotation Yrotation Zrotation
				End Site
				{
					OFFSET 0.000000 -2.449906 4.627600 
				}
			}
		}
	}
	JOINT rThigh
	{
		OFFSET -5.308129 -1.633274 1.361059 
		CHANNELS 3 Xrotation Zrotation Yrotation
		JOINT rShin
		{
			OFFSET 2.041588 -20.007561 0.000000 
			CHANNELS 3 Xrotation Zrotation Yrotation
			JOINT rFoot
			{
				OFFSET 0.000000 -19.190928 -1.224953 
				CHANNELS 3 Xrotation Yrotation Zrotation
				End Site
				{
					OFFSET 0.000000 -2.449906 4.627600 
				}
			}
		}
	}
}
MOTION
Frames: 19
Frame Time: 0.016667
9.821788 46.840088 146.472351 -6.274949 -3.039461 7.608136 25.155806 0.501836 8.799171 -23.014885 0.560611 8.203590 8.916930 14.753227 33.622345 4.559340 -19.293148 36.868710 -1.640387 1.396764 -0.009997 -77.873085 15.908084 -6.502430 -14.845293 0.851912 8.354441 -14.199851 16.461384 -4.110671 10.557134 2.937664 -0.010088 73.059135 -3.638908 -19.930145 36.828480 -2.271170 25.361124 18.908020 -5.449607 -1.874224 -19.418615 2.978549 -10.842710 11.631548 -1.756726 -1.399741 -2.220981 0.740390 -12.136011 13.612246 6.317518 -5.021187 26.714214 1.277748 2.282996 -28.213667 -0.021520 12.450869 
9.934258 46.723534 147.494385 -6.245848 -2.901443 7.968981 24.998758 0.549855 8.955505 -23.216541 0.241559 8.339932 9.072880 14.719073 33.626686 4.584167 -19.261894 36.859035 -1.630623 1.386997 -0.009995 -78.069954 15.646296 -9.986065 -13.940689 1.006772 10.404469 -14.304992 16.501675 -4.149898 10.684082 2.908346 -0.010079 73.848335 -4.410089 -20.212698 37.549465 -2.213388 24.788122 18.692316 -5.456593 -1.853807 -19.443342 2.509997 -10.923450 11.623619 -1.743437 -1.398156 -2.544451 0.762016 -12.138268 14.464153 6.177094 -5.353828 27.427368 1.243880 2.350982 -27.143875 0.265566 12.594893 
10.046764 46.607059 148.516556 -6.214551 -2.763618 8.320118 24.832310 0.597813 9.121613 -23.408527 -0.067611 8.486334 9.225755 14.675167 33.637875 4.615443 -19.228298 36.861549 -1.611092 1.386993 -0.009995 -78.246323 15.383820 -13.451509 -13.039873 1.198570 12.441294 -14.400024 16.542583 -4.189267 10.801264 2.879029 -0.010071 74.648903 -5.171631 -20.500183 38.264938 -2.176843 24.212255 18.477789 -5.469668 -1.845668 -19.474285 2.051238 -10.995693 11.631168 -1.754677 -1.419060 -2.865234 0.799714 -12.133780 15.334312 6.031500 -5.698586 28.140551 1.214396 2.409908 -26.080133 0.564015 12.693832 
10.186135 46.540134 149.614975 -6.217173 -2.441738 8.787071 24.529409 0.530172 9.219165 -23.546358 -0.395865 8.623244 9.614582 14.567847 33.629932 4.591165 -19.191566 36.839748 -1.620866 1.338167 -0.009987 -78.270386 14.882586 -15.483378 -12.053111 1.245263 13.072459 -13.940802 16.822021 -4.117013 10.879379 2.820422 -0.010059 75.645653 -6.261711 -20.828766 38.626217 -2.135134 23.774351 18.237206 -5.310218 -1.767605 -19.491760 1.367080 -11.129710 13.281782 -1.718877 -1.494385 -2.676246 0.817119 -12.109931 16.275303 5.711035 -6.153356 28.854670 1.184873 2.439403 -24.234547 1.060979 12.868870 
10.325547 46.473312 150.713409 -6.214933 -2.120440 9.264064 24.226355 0.462554 9.326496 -23.695656 -0.723859 8.770183 9.993676 14.460531 33.622116 4.570429 -19.162636 36.821171 -1.630638 1.299106 -0.009981 -78.279182 14.381190 -17.494658 -11.078149 1.312556 13.693871 -13.491452 17.110159 -4.045688 10.957031 2.763672 -0.000471 76.659874 -7.343278 -21.170588 38.981323 -2.107786 23.333748 17.996058 -5.153241 -1.681663 -19.513815 0.674951 -11.261999 14.945787 -1.688927 -1.599402 -2.462317 0.862280 -12.126901 17.213945 5.389081 -6.634092 29.568148 1.160146 2.479487 -22.396000 1.545206 12.994498 
10.491850 46.474480 151.855820 -6.172583 -1.577931 9.857272 23.796204 0.221634 9.336018 -23.811562 -1.080619 8.888256 10.403567 14.306212 33.646931 4.795473 -19.094595 36.793018 -1.669714 1.220988 -0.009967 -78.180206 13.711134 -19.394039 -10.288509 1.358802 14.335735 -12.894084 17.493967 -3.945081 10.986328 2.675781 0.000000 77.867493 -8.668768 -21.606215 38.905170 -2.080859 23.044668 17.924212 -5.043744 -1.639590 -19.175341 -0.204280 -11.449994 16.676712 -1.640323 -1.714801 -2.048989 0.817077 -12.141979 17.866053 4.802570 -7.371566 30.701860 1.111017 2.544228 -19.635803 2.252309 13.136608 
10.658158 46.475784 152.998215 -6.138745 -1.037162 10.460610 23.364384 -0.028908 9.345702 -23.930719 -1.446751 9.016445 10.810896 14.153582 33.662670 5.023717 -19.028828 36.755962 -1.708788 1.152635 -0.009956 -78.050743 13.050745 -21.282888 -9.510696 1.419864 14.977362 -12.305684 17.886396 -3.842094 11.015625 2.587891 0.000000 79.092690 -9.990560 -22.077602 38.830437 -2.053220 22.755846 17.842661 -4.934424 -1.596934 -18.840481 -1.092091 -11.631849 18.404806 -1.591445 -1.828937 -1.638143 0.785225 -12.151420 18.511494 4.226986 -8.105601 31.834726 1.056911 2.626304 -16.873581 2.954078 13.204879 
10.828655 46.564735 154.128067 -6.011165 -0.469353 11.230806 22.867559 -0.260208 9.296957 -24.065918 -1.851435 9.096476 11.101933 13.961560 33.608368 5.530668 -18.802126 36.623474 -1.757630 1.074518 -0.009942 -77.855591 12.290225 -23.111242 -9.011707 1.488716 15.830989 -11.803414 18.061834 -3.714469 11.016043 2.498134 -0.010002 80.433792 -11.384496 -22.693777 38.202751 -2.055359 22.820049 17.991474 -4.995345 -1.630570 -18.122404 -1.932998 -12.016501 19.523508 -1.552274 -1.901734 -1.888620 0.569830 -12.160532 18.440399 3.571598 -9.107078 33.740028 0.973686 2.718673 -13.065841 3.757001 13.118074 
10.999109 46.653751 155.257813 -5.868364 0.095522 12.001985 22.380810 -0.491559 9.258139 -24.203421 -2.265640 9.167218 11.400728 13.770895 33.547504 6.032858 -18.566916 36.491661 -1.806469 1.006167 -0.009931 -77.626640 11.523995 -24.937147 -8.504834 1.565922 16.686035 -11.290623 18.246641 -3.585945 11.025793 2.400476 -0.009986 81.803375 -12.760530 -23.341991 37.565472 -2.061077 22.883472 18.150141 -5.055840 -1.665386 -17.392792 -2.759992 -12.403463 20.640686 -1.523108 -1.975267 -2.156683 0.357475 -12.170224 18.372850 2.908345 -10.110262 35.654003 0.879781 2.825597 -9.270688 4.552000 12.978348 
11.143327 46.781078 156.321808 -5.674794 0.552217 12.852180 21.986906 -0.636259 9.189966 -24.443966 -2.660768 9.189652 11.568290 13.521595 33.374905 6.628991 -18.201189 36.233284 -1.855308 0.947582 -0.009921 -77.475739 10.759533 -26.813551 -8.666828 1.648928 17.690353 -11.115891 18.410872 -3.559471 11.035541 2.302818 -0.009970 83.031990 -13.950795 -23.924276 36.139439 -2.125126 23.617649 18.503750 -5.073312 -1.705598 -16.515278 -3.424240 -12.968518 21.188747 -1.500232 -2.039162 -2.912663 0.098803 -12.166031 17.242554 2.225497 -11.230695 38.846245 0.722645 2.991727 -5.185781 5.071140 12.688296 
11.287492 46.908405 157.385681 -5.457743 1.005655 13.713240 21.603113 -0.781013 9.121837 -24.686916 -3.065405 9.221805 11.731938 13.263129 33.203018 7.228261 -17.831066 35.985680 -1.904144 0.898762 -0.009912 -77.293938 10.000559 -28.685022 -8.834296 1.726674 18.694162 -10.937695 18.576962 -3.522957 11.045292 2.205160 -0.009953 84.277573 -15.139441 -24.541412 34.716137 -2.194712 24.345259 18.857378 -5.090478 -1.746086 -15.638967 -4.079566 -13.554018 21.737478 -1.480609 -2.074253 -3.654923 -0.142588 -12.178707 16.127529 1.521715 -12.358897 42.057266 0.552492 3.137457 -1.089162 5.569950 12.328982 
11.400264 47.038750 158.378677 -5.364881 1.238967 14.427351 21.485081 -0.723101 9.151011 -24.948195 -3.392672 9.273808 11.786118 12.977940 32.976009 7.760622 -17.554277 35.724007 -1.952979 0.859708 -0.009905 -77.305305 9.209476 -30.713707 -9.532365 1.821263 19.789492 -11.464468 18.380363 -3.665523 11.074573 2.117265 -0.009938 85.144058 -15.988932 -24.768839 32.665958 -2.271083 25.641947 19.324894 -4.983872 -1.755426 -14.607448 -4.393758 -14.106169 22.012360 -1.464426 -2.085995 -4.570069 -0.336331 -12.213998 14.292481 0.848530 -13.290549 45.959862 0.347035 3.303999 1.748227 5.238719 12.062017 
11.512998 47.169056 159.371552 -5.259205 1.461212 15.132127 21.365549 -0.674838 9.180311 -25.211020 -3.729584 9.316396 11.842680 12.691205 32.752121 8.290186 -17.275503 35.463219 -2.001813 0.820654 -0.009899 -77.279579 8.435474 -32.739113 -10.234946 1.909600 20.889538 -11.986967 18.184734 -3.798949 11.103855 2.029369 -0.009923 86.005783 -16.847927 -25.016567 30.618153 -2.399369 26.945608 19.791826 -4.889955 -1.757281 -13.558348 -4.683853 -14.637597 22.285606 -1.451015 -2.136822 -5.492966 -0.522178 -12.228453 12.462220 0.145195 -14.212854 49.859520 0.094809 3.486941 4.580886 4.873509 11.815705 
11.600233 47.275448 160.286606 -5.252405 1.532298 15.718876 21.477322 -0.462644 9.258060 -25.428928 -3.922209 9.328069 11.895113 12.383825 32.548019 8.733904 -17.214128 35.270432 -2.060415 0.771836 -0.009890 -77.462921 7.642480 -34.992374 -11.253079 2.018548 22.120739 -13.149942 17.526773 -4.022892 11.152674 1.970768 -0.009911 86.409714 -17.394489 -24.865757 28.415701 -2.515714 28.875069 20.279270 -4.770659 -1.770860 -12.533623 -4.742508 -15.136563 22.501333 -1.441250 -2.146302 -6.420997 -0.658513 -12.267074 10.190452 -0.420260 -14.738688 53.613613 -0.121028 3.617252 4.729817 3.288622 11.938323 
11.687426 47.381817 161.201584 -5.244383 1.602871 16.295622 21.589670 -0.250543 9.336020 -25.638742 -4.124459 9.340527 11.947785 12.076305 32.333393 9.170279 -17.154167 35.068523 -2.109250 0.732781 -0.009883 -77.617050 6.840749 -37.222397 -12.269347 2.109863 23.341946 -14.312940 16.872149 -4.242804 11.201491 1.912165 -0.009900 86.798500 -17.951660 -24.708052 26.225311 -2.700091 30.789738 20.766594 -4.651494 -1.782539 -11.527786 -4.781053 -15.645064 22.716953 -1.445058 -2.138747 -7.354545 -0.777773 -12.311616 7.938848 -1.006060 -15.231850 57.328064 -0.338055 3.732911 4.926921 1.706290 12.023038 
11.746621 47.472420 162.059555 -5.327151 1.588240 16.930662 21.835938 0.000000 9.316405 -25.710339 -4.077640 9.222256 11.997740 11.724306 32.195724 9.449882 -17.257929 34.967564 -2.167854 0.674198 -0.009873 -77.755920 6.032246 -32.884750 -13.120998 1.758170 19.446997 -14.318741 16.548277 -4.167018 11.221016 1.873100 -0.009893 86.873627 -18.321398 -24.649351 24.533131 -2.865117 33.576244 21.276251 -4.675463 -1.828707 -10.463133 -4.682101 -16.205957 22.845001 -1.435228 -2.133876 -8.243784 -0.806571 -12.325400 5.571575 -1.473749 -15.573436 60.018040 -0.538669 3.791488 3.141995 -0.668725 12.148520 
11.805760 47.563015 162.917496 -5.397473 1.582788 17.565701 22.073801 0.260216 9.287236 -25.773218 -4.040524 9.094941 12.059195 11.371379 32.059437 9.725911 -17.353823 34.863827 -2.216692 0.615612 -0.009863 -77.944008 5.239974 -28.538425 -13.999002 1.460245 15.556084 -14.335136 16.223759 -4.090993 11.250308 1.834033 -0.009886 86.948853 -18.701077 -24.594219 22.862366 -3.108234 36.359001 21.796772 -4.704095 -1.888890 -9.418491 -4.564407 -16.773357 22.981176 -1.435365 -2.160472 -9.115613 -0.797647 -12.353401 3.211160 -1.961780 -15.896094 62.707550 -0.723875 3.859044 1.355133 -3.035109 12.185094 
11.832671 47.646481 163.749329 -5.459146 1.556919 18.385944 22.258108 0.443635 9.043300 -25.635145 -3.677340 8.768170 11.983428 11.012912 31.966362 10.045785 -17.371683 34.772949 -2.265533 0.537495 -0.009849 -77.972626 4.416687 -22.631401 -15.113718 1.076815 11.488709 -13.812339 15.896996 -3.861140 11.211240 1.804742 -0.009882 86.894424 -18.937202 -25.483885 21.791082 -3.341392 40.336727 22.135929 -4.584197 -1.872871 -8.393619 -4.388738 -17.532953 22.961622 -1.435342 -2.159450 -9.914964 -0.730532 -12.350150 0.906247 -2.464245 -16.304600 63.934551 -0.802343 3.912743 -1.068057 -5.348373 11.901658 
11.859531 47.729942 164.581177 -5.524412 1.521595 19.216208 22.432690 0.636929 8.809240 -25.491474 -3.313398 8.441765 11.923875 10.662163 31.874607 10.352932 -17.387526 34.691185 -2.314375 0.459379 -0.009836 -78.092300 3.601264 -16.716799 -16.264696 0.768929 7.423307 -13.292331 15.577030 -3.639294 11.181936 1.765684 -0.009877 86.842201 -19.165955 -26.386566 20.742521 -3.640944 44.311382 22.475075 -4.464661 -1.855487 -7.380095 -4.195097 -18.289122 22.941502 -1.445101 -2.160205 -10.721029 -0.660886 -12.345039 -1.386169 -2.985045 -16.683037 65.133110 -0.868983 3.951250 -3.512883 -7.646316 11.518897 
